*HAS ENDING *


Description

Poster: http://cdn.piczend.com/image/lwqzjius3kfk9a8j3knjcecre.jpeg
Release date: 2013
Genre: Drama, Mystery, Romance, Thriller
Plot: A young woman with a mysterious past lands in Southport, North Carolina where her bond with a widower forces her to confront the dark secret that haunts her.
--------------------------------
Runtime: 1 h 55 min
Rating: 6.3/10
Votes: 5,946
Writer(s)/Director(s): Leslie Bohem, Dana Stevens/Lasse Hallström
Actors: Julianne Hough, Josh Duhamel, Cobie Smulders, David Lyons
Trailer: http://www.imdb.com/video/imdb/vi2406786073/

Screenshots: 
http://cdn.piczend.com/image/mzt10y3mnby0uc3ussv9gvmwf.jpeg 
http://cdn.piczend.com/image/cbcfibrhkiyibbv3zmnrf8axu.jpeg 
http://cdn.piczend.com/image/9tpmqufsxk0o2yybw73xtxnvb.jpeg 
http://cdn.piczend.com/image/50z6ou68ziokow7ynmrlkjyic.jpeg

Mediainfo:
General
Complete name :	Safe Haven (2013) CAM 340p [Zend]/Safe Haven (2013) CAM 340p [Zend].mp4
Format :	MPEG-4
Format profile :	Base Media
Codec ID :	isom
File size :	1.30 GiB
Duration :	1h 49mn
Overall bit rate :	1 696 Kbps
Writing application :	Lavf53.21.1

Video
ID :	1
Format :	AVC
Format/Info :	Advanced Video Codec
Format profile :	Main@L3.0
Format settings, CABAC :	Yes
Format settings, ReFrames :	3 frames
Codec ID :	avc1
Codec ID/Info :	Advanced Video Coding
Duration :	1h 49mn
Bit rate :	1 500 Kbps
Width :	640 pixels
Height :	340 pixels
Display aspect ratio :	1.882
Frame rate mode :	Constant
Frame rate :	24.000 fps
Color space :	YUV
Chroma subsampling :	4:2:0
Bit depth :	8 bits
Scan type :	Progressive
Bits/(Pixel*Frame) :	0.287
Stream size :	1.15 GiB (88%)
Writing library :	x264 core 123 r2189 35cf912
Encoding settings :	cabac=1 / ref=3 / deblock=1:0:0 / analyse=0x1:0x111 / me=hex / subme=7 / psy=1 / psy_rd=1.00:0.00 / mixed_ref=0 / me_range=16 / chroma_me=1 / trellis=1 / 8x8dct=0 / cqm=0 / deadzone=21,11 / fast_pskip=1 / chroma_qp_offset=-2 / threads=6 / sliced_threads=0 / nr=0 / decimate=1 / interlaced=0 / bluray_compat=0 / constrained_intra=0 / bframes=3 / b_pyramid=0 / b_adapt=1 / b_bias=0 / direct=1 / weightb=0 / open_gop=1 / weightp=2 / keyint=250 / keyint_min=24 / scenecut=40 / intra_refresh=0 / rc_lookahead=40 / rc=abr / mbtree=1 / bitrate=1500 / ratetol=1.0 / qcomp=0.60 / qpmin=0 / qpmax=69 / qpstep=4 / ip_ratio=1.25 / aq=1:1.00

Audio
ID :	2
Format :	AC-3
Format/Info :	Audio Coding 3
Mode extension :	CM (complete main)
Format settings, Endianness :	Big
Codec ID :	ac-3
Duration :	1h 49mn
Bit rate mode :	Constant
Bit rate :	192 Kbps
Channel(s) :	2 channels
Channel positions :	Front: L R
Sampling rate :	48.0 KHz
Bit depth :	16 bits
Compression mode :	Lossy
Delay relative to video :	42ms
Stream size :	150 MiB (11%)
